<svg id="Layer_1" data-name="Layer 1" xmlns="http://www.w3.org/2000/svg" xmlns:xlink="http://www.w3.org/1999/xlink" viewBox="0 0 786.75 466.32"><defs><style>.cls-1{fill:none;}.cls-2{fill:#fff;}.cls-3{clip-path:url(#clip-path);}.cls-4{fill:#009ee1;}</style><clipPath id="clip-path" transform="translate(-49.02 -41.78)"><rect class="cls-1" x="-193" y="-336" width="1920" height="1080"/></clipPath></defs><title>Logos for bart</title><rect class="cls-2" x="64.88" y="121" width="18.21" height="16.9"/><g class="cls-3"><path d="M132.11,178.18H113.9l1.5,1.5v-16.9l-1.5,1.5h18.21l-1.5-1.5v16.9a1.5,1.5,0,0,0,3,0v-16.9a1.52,1.52,0,0,0-1.5-1.5H113.9a1.52,1.52,0,0,0-1.5,1.5v16.9a1.52,1.52,0,0,0,1.5,1.5h18.21a1.5,1.5,0,0,0,0-3" transform="translate(-49.02 -41.78)"/><rect class="cls-2" x="92.75" y="107.39" width="18.21" height="30.5"/><path d="M160,178.18h-18.2l1.5,1.5v-30.5l-1.5,1.5H160l-1.5-1.5v30.5a1.5,1.5,0,0,0,3,0v-30.5a1.52,1.52,0,0,0-1.5-1.5h-18.2a1.52,1.52,0,0,0-1.5,1.5v30.5a1.52,1.52,0,0,0,1.5,1.5H160a1.5,1.5,0,0,0,0-3" transform="translate(-49.02 -41.78)"/><rect class="cls-2" x="120.63" y="76.89" width="18.21" height="61.01"/><path d="M187.86,178.18H169.65l1.5,1.5v-61l-1.5,1.5h18.21l-1.5-1.5v61a1.5,1.5,0,0,0,3,0v-61a1.52,1.52,0,0,0-1.5-1.5H169.65a1.52,1.52,0,0,0-1.5,1.5v61a1.52,1.52,0,0,0,1.5,1.5h18.21a1.5,1.5,0,0,0,0-3" transform="translate(-49.02 -41.78)"/><rect class="cls-2" x="148.51" y="47.4" width="18.21" height="90.49"/><path d="M215.74,178.18H197.53l1.5,1.5V92.87a23.11,23.11,0,0,0,0-3.53v-.15l-1.5,1.5h18.21l-1.5-1.5v79.36c0,3.64-.17,7.33,0,11v.15a1.5,1.5,0,0,0,3,0V100.32c0-3.64.17-7.34,0-11v-.15a1.52,1.52,0,0,0-1.5-1.5H197.53a1.52,1.52,0,0,0-1.5,1.5v79.36c0,3.64-.17,7.33,0,11v.15a1.52,1.52,0,0,0,1.5,1.5h18.21a1.5,1.5,0,0,0,0-3" transform="translate(-49.02 -41.78)"/><rect class="cls-2" x="176.39" y="6.49" width="18.21" height="131.4"/><path d="M243.62,178.18H225.41l1.5,1.5v-126a42,42,0,0,0,0-5.14,1.62,1.62,0,0,1,0-.22l-1.5,1.5h18.21l-1.5-1.5V163.5c0,5.3-.21,10.65,0,15.95v.23a1.5,1.5,0,0,0,3,0V64.46c0-5.31.2-10.66,0-16a1.62,1.62,0,0,1,0-.22,1.52,1.52,0,0,0-1.5-1.5H225.41a1.52,1.52,0,0,0-1.5,1.5V163.5c0,5.3-.2,10.65,0,15.95v.23a1.52,1.52,0,0,0,1.5,1.5h18.21a1.5,1.5,0,0,0,0-3" transform="translate(-49.02 -41.78)"/><path class="cls-4" d="M113.84,112.26l-7-1.87,4.29-22S123,69.75,123,68.9h11.8L139,77.56,156.2,94.3l-3.66,6L139,88l.59,14,11.32,6.81,1,24.54-8.53,0-.8-19.78-9.46-3.27-1.54,13.65L123,147.5l-8.53-1.37L123.65,122,123,88.38l-4.54,1.19Z" transform="translate(-49.02 -41.78)"/><path class="cls-4" d="M114.24,110.82l-7-1.87,1,1.84,3.75-19.24a13.35,13.35,0,0,0,.53-2.72c0,.18-.25.44,0,0s.53-.83.79-1.24c2.07-3.29,4.14-6.59,6.18-9.91,1.11-1.81,2.22-3.62,3.29-5.46a8.85,8.85,0,0,0,1.55-3.32L123,70.4h11.8l-1.29-.74,3.3,6.68a10.44,10.44,0,0,0,2.12,3.16l12.28,12,4,3.88-.24-1.81-3.66,6,2.36-.31L140,86.92A1.53,1.53,0,0,0,137.45,88q.26,6.1.52,12.21c0,.57,0,1.18.07,1.75a2,2,0,0,0,1.23,1.62l5.81,3.5,5,3-.75-1.3q.44,10.71.88,21.42l.12,3.12,1.5-1.5-8.53,0,1.5,1.5q-.39-9.89-.8-19.78a1.54,1.54,0,0,0-1.1-1.44l-9.46-3.27a1.52,1.52,0,0,0-1.9,1.44q-.45,4-.89,7.93l-.51,4.54c0,.36-.09.73-.13,1.09,0,.12.19-.54,0-.07a63.48,63.48,0,0,0-2.42,6.65q-1.89,5.2-3.8,10.42-1.12,3.14-2.27,6.25l1.84-1-8.53-1.36,1,1.84q4.5-11.75,9-23.49a4.27,4.27,0,0,0,.28-1.87c0-1.66-.07-3.33-.1-5l-.34-16.39-.24-11.41a1.52,1.52,0,0,0-1.89-1.45L118,88.13a1.47,1.47,0,0,0-1.05,1L113,109c-.19,1-.38,1.92-.58,2.88-.38,1.89,2.51,2.7,2.9.8q2-9.9,4-19.81c.2-1,.39-1.92.58-2.88l-1,1,4.54-1.2-1.9-1.44.54,25.85.12,6c0,.49,0,1,0,1.47s.2-.26,0,0a9,9,0,0,0-.58,1.52l-1,2.67-2.91,7.59L113,145.73a1.51,1.51,0,0,0,1,1.85l8.54,1.37a1.56,1.56,0,0,0,1.84-1l5.67-15.58,2.73-7.49a23.1,23.1,0,0,0,.72-5.18l1-9.36-1.9,1.45,9.46,3.27-1.1-1.45q.41,9.89.8,19.78a1.53,1.53,0,0,0,1.5,1.5l8.53,0a1.51,1.51,0,0,0,1.5-1.5q-.33-8.2-.67-16.42c-.1-2.55-.17-5.11-.31-7.66a2.07,2.07,0,0,0-.94-1.86c-1-.68-2.14-1.29-3.21-1.93l-7.93-4.77L141,102q-.3-7-.59-14L137.89,89l13.59,12.28a1.52,1.52,0,0,0,2.35-.31c1.22-2,2.45-4,3.67-6a1.53,1.53,0,0,0-.24-1.82l-9.74-9.5L141.63,78a10.81,10.81,0,0,0-1.41-1.38c-.32-.22.12.28.07.09a7.49,7.49,0,0,0-.58-1.17l-3.66-7.39a1.49,1.49,0,0,0-1.3-.75H123a1.54,1.54,0,0,0-1.5,1.5c0-.21.1-.28,0-.27s.15-.33,0-.11-.18.36-.28.54c-.29.55-.61,1.1-.93,1.64-1,1.63-1.92,3.23-2.91,4.83q-3.11,5.07-6.28,10.09c-.41.65-.91,1.3-1.26,2a9.14,9.14,0,0,0-.51,2.2l-2.19,11.23L105.42,110a1.55,1.55,0,0,0,1,1.85l7,1.87a1.5,1.5,0,0,0,.8-2.89" transform="translate(-49.02 -41.78)"/><path class="cls-4" d="M139,54.88a10.2,10.2,0,1,1-10.19-9.74A10,10,0,0,1,139,54.88" transform="translate(-49.02 -41.78)"/><path class="cls-4" d="M137.54,54.88a8.35,8.35,0,0,1-5.76,7.76,9.08,9.08,0,0,1-9.62-2.5,8,8,0,0,1-.72-9.57,8.94,8.94,0,0,1,9-3.8,8.5,8.5,0,0,1,7.1,8.11c0,1.93,3,1.93,3,0a11.43,11.43,0,0,0-7.71-10.56,12,12,0,0,0-13,3.38,11,11,0,0,0-1,13,12,12,0,0,0,12.39,5.18,11.47,11.47,0,0,0,9.3-11c0-1.93-3-1.93-3,0" transform="translate(-49.02 -41.78)"/><path class="cls-4" d="M158.66,100.52c2.62-3.48-1.33-7.24-1.33-7.24l-6,8s4.71,2.75,7.33-.74" transform="translate(-49.02 -41.78)"/><path class="cls-4" d="M109.18,117.06c4.27.92,6-4.25,6-4.25l-9.77-2.08s-.51,5.42,3.75,6.33" transform="translate(-49.02 -41.78)"/><path class="cls-4" d="M147.65,139.44c5,0,5.75-6.24,5.75-6.24H141.9s.73,6.24,5.75,6.24" transform="translate(-49.02 -41.78)"/><path class="cls-4" d="M117.7,153.4c5,.74,6.6-5.32,6.6-5.32l-11.38-1.69s-.19,6.28,4.78,7" transform="translate(-49.02 -41.78)"/><path class="cls-4" d="M674.13,52.74c-5.15,4.42-1.93,10.52-1.93,10.52l12.53-11s-5.63-4-10.68.55" transform="translate(-49.02 -41.78)"/><path class="cls-4" d="M764.48,53.1c-5-4.54-10.5-.75-10.5-.75l12.5,11s3.06-5.89-2.09-10.31" transform="translate(-49.02 -41.78)"/><path class="cls-4" d="M736,58.53a16.75,16.75,0,1,1-16.75-16.75A16.75,16.75,0,0,1,736,58.53" transform="translate(-49.02 -41.78)"/><polyline class="cls-4" points="670.86 92.32 653.55 92.22 653.55 52.52 623.17 21.5 635.68 10.5 659.93 35.47 680.79 35.47 705.04 10.5 717.55 21.5 687.17 52.52 687.17 92.22 669.86 92.32"/><polygon class="cls-2" points="630.62 107.64 605.87 107.64 611.41 120.52 605.87 134.24 630.62 134.24 630.62 107.64"/><path d="M679.64,147.93H654.89a1.52,1.52,0,0,0-1.29,2.26l5.54,12.87L659,161.9q-2.78,6.87-5.54,13.73a1.5,1.5,0,0,0,1.44,1.89h24.75a1.52,1.52,0,0,0,1.5-1.5V149.43a1.5,1.5,0,0,0-3,0V176l1.5-1.5H654.89c.48.64,1,1.27,1.45,1.9l4.83-11.95a14,14,0,0,0,.69-1.72,2.82,2.82,0,0,0-.41-1.85c-.94-2.2-1.89-4.39-2.83-6.59l-2.43-5.64-1.3,2.26h24.75a1.5,1.5,0,0,0,0-3" transform="translate(-49.02 -41.78)"/><polygon class="cls-2" points="708.12 107.64 732.87 107.64 727.33 120.52 732.87 134.24 708.12 134.24 708.12 107.64"/><path d="M757.14,150.93h24.75l-1.29-2.26q-2.52,5.84-5,11.68a10.66,10.66,0,0,0-.67,1.55,3.12,3.12,0,0,0,.45,1.9c.94,2.35,1.89,4.69,2.83,7,.76,1.86,1.51,3.73,2.27,5.59l1.44-1.9H757.14l1.5,1.5V149.43a1.5,1.5,0,0,0-3,0V176a1.52,1.52,0,0,0,1.5,1.5h24.75a1.51,1.51,0,0,0,1.45-1.89l-5.55-13.73-.15,1.16,5.55-12.87a1.53,1.53,0,0,0-1.3-2.26H757.14a1.5,1.5,0,0,0,0,3" transform="translate(-49.02 -41.78)"/><rect class="cls-2" x="630.62" y="92.54" width="77.5" height="28.41"/><path d="M757.14,161.23h-77.5l1.5,1.5V134.32l-1.5,1.5h77.5l-1.5-1.5v28.41a1.5,1.5,0,0,0,3,0V134.32a1.52,1.52,0,0,0-1.5-1.5h-77.5a1.52,1.52,0,0,0-1.5,1.5v28.41a1.52,1.52,0,0,0,1.5,1.5h77.5a1.5,1.5,0,0,0,0-3" transform="translate(-49.02 -41.78)"/><path class="cls-4" d="M476.93,65.1a23,23,0,1,1-23-23,23,23,0,0,1,23,23" transform="translate(-49.02 -41.78)"/><path class="cls-4" d="M419.5,104.32c10.78-12.43,30.73-13,30.73-13h6.47s20.5.54,31.28,13" transform="translate(-49.02 -41.78)"/><polyline class="cls-4" points="370.2 61.54 404.71 75.32 438.69 61.54"/><polygon class="cls-2" points="368.05 61.54 358.33 57.74 358.33 77.7 358.33 117.88 403.1 134.94 403.1 75.32 368.05 61.54"/><path d="M417.47,101.87l-9.72-3.79a1.5,1.5,0,0,0-1.9,1.44v60.14a1.57,1.57,0,0,0,1.1,1.45l15.16,5.78,24,9.16,5.57,2.12a1.5,1.5,0,0,0,1.9-1.44V117.1a1.55,1.55,0,0,0-1.1-1.44L421.85,103.6l-4.38-1.73c-1.8-.7-2.58,2.2-.8,2.9l30.66,12.06,4.39,1.72-1.1-1.45v59.63l1.9-1.45-15.16-5.78-24-9.16-5.57-2.12,1.1,1.44V99.52L407,101l9.72,3.8c1.8.7,2.58-2.2.8-2.9" transform="translate(-49.02 -41.78)"/><polygon class="cls-2" points="438.69 61.54 448.4 57.74 448.4 77.7 448.4 117.88 403.63 134.94 403.63 75.32 438.69 61.54"/><path d="M488.11,104.77l9.71-3.8-1.89-1.45v60.14l1.1-1.44L481.87,164l-24,9.17-5.57,2.12,1.9,1.45V117.11l-1.1,1.44,30.66-12.06,4.39-1.72c1.77-.7,1-3.6-.8-2.9l-30.66,12.06-4.39,1.73a1.54,1.54,0,0,0-1.1,1.45v59.62a1.51,1.51,0,0,0,1.9,1.45l15.15-5.78,24-9.17,5.57-2.12a1.56,1.56,0,0,0,1.11-1.45V99.52a1.51,1.51,0,0,0-1.9-1.44l-9.72,3.79c-1.78.7-1,3.6.8,2.9" transform="translate(-49.02 -41.78)"/><path class="cls-4" d="M508.94,129.73c.18-10.62-15.29-13.12-15.29-13.12v26.06s15.47-2.51,15.29-13.12" transform="translate(-49.02 -41.78)"/><path class="cls-4" d="M396.38,130.63c-.19,10.61,15.29,13.12,15.29,13.12V117.69s-15.48,2.5-15.29,13.11" transform="translate(-49.02 -41.78)"/><path class="cls-2" d="M718.39,507.6A116.88,116.88,0,1,1,835.27,390.72,117,117,0,0,1,718.39,507.6" transform="translate(-49.02 -41.78)"/><path d="M718.39,274.35a116.36,116.36,0,1,1-82.29,34.08,115.6,115.6,0,0,1,82.29-34.08m0-1A117.38,117.38,0,1,0,835.77,390.72,117.37,117.37,0,0,0,718.39,273.35" transform="translate(-49.02 -41.78)"/><path class="cls-4" d="M674.13,334.21c-5.15,4.42-1.93,10.52-1.93,10.52l12.53-11s-5.63-4-10.68.55" transform="translate(-49.02 -41.78)"/><path class="cls-4" d="M764.48,334.57c-5-4.54-10.5-.76-10.5-.76l12.5,11s3.06-5.9-2.09-10.32" transform="translate(-49.02 -41.78)"/><path class="cls-4" d="M736,340a16.75,16.75,0,1,1-16.75-16.75A16.75,16.75,0,0,1,736,340" transform="translate(-49.02 -41.78)"/><polyline class="cls-4" points="670.86 373.79 653.55 373.69 653.55 333.99 623.17 302.96 635.68 291.96 659.93 316.94 680.79 316.94 705.04 291.96 717.55 302.96 687.17 333.99 687.17 373.69 669.86 373.79"/><polygon class="cls-2" points="630.62 389.11 605.87 389.11 611.41 401.99 605.87 415.71 630.62 415.71 630.62 389.11"/><path d="M679.64,429.4H654.89a1.51,1.51,0,0,0-1.29,2.25q2.77,6.44,5.54,12.88l-.15-1.16q-2.78,6.86-5.54,13.72a1.5,1.5,0,0,0,1.44,1.9h24.75a1.52,1.52,0,0,0,1.5-1.5V430.9a1.5,1.5,0,0,0-3,0v26.59l1.5-1.5H654.89c.48.64,1,1.27,1.45,1.9l4.83-12a13.42,13.42,0,0,0,.69-1.72,2.79,2.79,0,0,0-.41-1.84c-.94-2.2-1.89-4.39-2.83-6.59l-2.43-5.64c-.43.75-.87,1.5-1.3,2.26h24.75a1.5,1.5,0,0,0,0-3" transform="translate(-49.02 -41.78)"/><polygon class="cls-2" points="708.12 389.11 732.87 389.11 727.33 401.99 732.87 415.71 708.12 415.71 708.12 389.11"/><path d="M757.14,432.4h24.75l-1.29-2.26q-2.52,5.83-5,11.67a11.27,11.27,0,0,0-.67,1.56,3.12,3.12,0,0,0,.45,1.9l2.83,7c.76,1.87,1.51,3.74,2.27,5.6l1.44-1.9H757.14l1.5,1.5V430.9a1.5,1.5,0,0,0-3,0v26.59a1.52,1.52,0,0,0,1.5,1.5h24.75a1.51,1.51,0,0,0,1.45-1.9l-5.55-13.72-.15,1.16,5.55-12.88a1.52,1.52,0,0,0-1.3-2.25H757.14a1.5,1.5,0,0,0,0,3" transform="translate(-49.02 -41.78)"/><rect class="cls-2" x="630.62" y="374.01" width="77.5" height="28.4"/><path d="M757.14,442.69h-77.5l1.5,1.5v-28.4l-1.5,1.5h77.5l-1.5-1.5v28.4a1.5,1.5,0,0,0,3,0v-28.4a1.52,1.52,0,0,0-1.5-1.5h-77.5a1.52,1.52,0,0,0-1.5,1.5v28.4a1.52,1.52,0,0,0,1.5,1.5h77.5a1.5,1.5,0,0,0,0-3" transform="translate(-49.02 -41.78)"/><path class="cls-2" d="M452.07,507.6A116.88,116.88,0,1,1,569,390.72,117,117,0,0,1,452.07,507.6" transform="translate(-49.02 -41.78)"/><path d="M452.07,274.35a116.36,116.36,0,1,1-82.29,34.08,115.64,115.64,0,0,1,82.29-34.08m0-1A117.38,117.38,0,1,0,569.45,390.72,117.37,117.37,0,0,0,452.07,273.35" transform="translate(-49.02 -41.78)"/><path class="cls-4" d="M476.93,346.57a23,23,0,1,1-23-23,23,23,0,0,1,23,23" transform="translate(-49.02 -41.78)"/><path class="cls-4" d="M419.5,385.79c10.78-12.43,30.73-13,30.73-13h6.47s20.5.54,31.28,13" transform="translate(-49.02 -41.78)"/><polyline class="cls-4" points="370.2 343.01 404.71 356.79 438.69 343.01"/><polygon class="cls-2" points="368.05 343.01 358.33 339.21 358.33 359.17 358.33 399.35 403.1 416.41 403.1 356.79 368.05 343.01"/><path d="M417.47,383.34l-9.72-3.8a1.51,1.51,0,0,0-1.9,1.45v60.14a1.57,1.57,0,0,0,1.1,1.45l15.16,5.77,24,9.17,5.57,2.12a1.51,1.51,0,0,0,1.9-1.44V398.57a1.54,1.54,0,0,0-1.1-1.44l-30.67-12.06-4.38-1.73c-1.8-.7-2.58,2.19-.8,2.9l30.66,12.05,4.39,1.73-1.1-1.45V458.2l1.9-1.45L437.36,451l-24-9.16-5.57-2.13,1.1,1.45V381l-1.9,1.45,9.72,3.8c1.8.7,2.58-2.2.8-2.9" transform="translate(-49.02 -41.78)"/><polygon class="cls-2" points="438.69 343.01 448.4 339.21 448.4 359.17 448.4 399.35 403.63 416.41 403.63 356.79 438.69 343.01"/><path d="M488.11,386.24l9.71-3.8L495.93,381v60.14l1.1-1.45-15.16,5.78-24,9.17-5.57,2.12,1.9,1.45V398.57l-1.1,1.45L483.72,388l4.39-1.72c1.77-.7,1-3.61-.8-2.9L456.65,395.4l-4.39,1.73a1.54,1.54,0,0,0-1.1,1.44V458.2a1.51,1.51,0,0,0,1.9,1.44l15.15-5.77,24-9.17,5.57-2.12a1.56,1.56,0,0,0,1.11-1.45V381a1.52,1.52,0,0,0-1.9-1.45l-9.72,3.8c-1.78.7-1,3.6.8,2.9" transform="translate(-49.02 -41.78)"/><path class="cls-4" d="M508.94,411.19c.18-10.61-15.29-13.11-15.29-13.11v26.06s15.47-2.51,15.29-13.12" transform="translate(-49.02 -41.78)"/><path class="cls-4" d="M396.38,412.1c-.19,10.61,15.29,13.12,15.29,13.12V399.15s-15.48,2.51-15.29,13.12" transform="translate(-49.02 -41.78)"/><path class="cls-2" d="M166.4,503A116.88,116.88,0,1,1,283.27,386.12,117,117,0,0,1,166.4,503" transform="translate(-49.02 -41.78)"/><path d="M166.4,269.74a116.39,116.39,0,1,1-82.29,34.09,115.63,115.63,0,0,1,82.29-34.09m0-1A117.38,117.38,0,1,0,283.77,386.12,117.38,117.38,0,0,0,166.4,268.74" transform="translate(-49.02 -41.78)"/><rect class="cls-2" x="66.15" y="399.48" width="18.03" height="16.73"/><path d="M133.2,456.49h-18l1.5,1.5V441.26l-1.5,1.5h18l-1.5-1.5V458a1.5,1.5,0,0,0,3,0V441.26a1.52,1.52,0,0,0-1.5-1.5h-18a1.52,1.52,0,0,0-1.5,1.5V458a1.52,1.52,0,0,0,1.5,1.5h18a1.5,1.5,0,0,0,0-3" transform="translate(-49.02 -41.78)"/><rect class="cls-2" x="93.75" y="386" width="18.03" height="30.2"/><path d="M160.8,456.49h-18l1.5,1.5v-30.2l-1.5,1.5h18l-1.5-1.5V458a1.5,1.5,0,0,0,3,0v-30.2a1.52,1.52,0,0,0-1.5-1.5h-18a1.52,1.52,0,0,0-1.5,1.5V458a1.52,1.52,0,0,0,1.5,1.5h18a1.5,1.5,0,0,0,0-3" transform="translate(-49.02 -41.78)"/><rect class="cls-2" x="121.36" y="355.8" width="18.03" height="60.41"/><path d="M188.41,456.49h-18l1.5,1.5V397.58l-1.5,1.5h18l-1.5-1.5V458a1.5,1.5,0,0,0,3,0V397.58a1.52,1.52,0,0,0-1.5-1.5h-18a1.52,1.52,0,0,0-1.5,1.5V458a1.52,1.52,0,0,0,1.5,1.5h18a1.5,1.5,0,0,0,0-3" transform="translate(-49.02 -41.78)"/><rect class="cls-2" x="148.96" y="326.6" width="18.03" height="89.6"/><path d="M216,456.49H198l1.5,1.5V372.05a24.19,24.19,0,0,0,0-3.51.75.75,0,0,1,0-.15l-1.5,1.5h18l-1.5-1.5V447c0,3.62-.17,7.28,0,10.89V458a1.5,1.5,0,0,0,3,0V379.43c0-3.62.17-7.28,0-10.89v-.15a1.52,1.52,0,0,0-1.5-1.5H198a1.52,1.52,0,0,0-1.5,1.5V447c0,3.62-.17,7.28,0,10.89V458a1.52,1.52,0,0,0,1.5,1.5h18a1.5,1.5,0,0,0,0-3" transform="translate(-49.02 -41.78)"/><rect class="cls-2" x="176.57" y="282.99" width="18.03" height="133.21"/><path d="M243.62,456.49h-18l1.5,1.5V330.18a42.63,42.63,0,0,0,0-5.18,1.62,1.62,0,0,1,0-.22l-1.5,1.5h18l-1.5-1.5V441.66c0,5.35-.21,10.76,0,16.11V458a1.5,1.5,0,0,0,3,0V341.11c0-5.36.2-10.76,0-16.11a1.62,1.62,0,0,1,0-.22,1.52,1.52,0,0,0-1.5-1.5h-18a1.52,1.52,0,0,0-1.5,1.5V441.66c0,5.35-.2,10.76,0,16.11V458a1.52,1.52,0,0,0,1.5,1.5h18a1.5,1.5,0,0,0,0-3" transform="translate(-49.02 -41.78)"/><path class="cls-4" d="M115.11,391.24l-6.9-1.86,4.25-21.79s11.68-18.45,11.68-19.29h11.68l4.25,8.58,17,16.58-3.63,5.89L140,367.2l.58,13.85,11.21,6.74,1,24.3-8.44,0-.8-19.59-9.37-3.23-1.52,13.51-8.49,23.33-8.46-1.36,9.15-23.88-.69-33.3-4.5,1.18Z" transform="translate(-49.02 -41.78)"/><path class="cls-4" d="M115.51,389.79l-6.9-1.85,1,1.84q1.84-9.45,3.68-18.92a13.6,13.6,0,0,0,.55-2.8c0,.07-.27.45,0,0s.49-.79.74-1.18c2-3.26,4.1-6.53,6.12-9.81,1.12-1.82,2.24-3.65,3.32-5.5a8.88,8.88,0,0,0,1.53-3.28l-1.5,1.5h11.68l-1.3-.74q1.62,3.26,3.23,6.51a10.49,10.49,0,0,0,2.16,3.25l12.18,11.88,3.91,3.82-.24-1.82-3.62,5.89,2.35-.3L141,366.14a1.52,1.52,0,0,0-2.56,1.06l.51,12c0,.59,0,1.19.07,1.77a2,2,0,0,0,1.19,1.6c1.9,1.15,3.8,2.28,5.69,3.43l5.08,3-.75-1.3.87,21.22.12,3.08,1.5-1.5-8.44,0,1.5,1.5q-.4-9.8-.8-19.59a1.54,1.54,0,0,0-1.1-1.44l-9.37-3.24a1.52,1.52,0,0,0-1.9,1.45l-.87,7.74c-.17,1.55-.35,3.1-.52,4.65l-.12,1c0,.11.2-.54,0-.07a22.36,22.36,0,0,0-.86,2.37l-1.59,4.36q-1.83,5-3.65,10l-2.31,6.33,1.85-1.05-8.46-1.35,1,1.84L126,402a4.23,4.23,0,0,0,.3-1.83c0-1.68-.07-3.35-.1-5l-.34-16.28c-.08-3.75-.15-7.5-.23-11.24a1.52,1.52,0,0,0-1.9-1.45l-4.5,1.18a1.5,1.5,0,0,0-1,1.05l-4,19.66c-.19.94-.38,1.87-.56,2.81-.38,1.89,2.51,2.69,2.89.8l4-19.66c.19-.94.37-1.87.56-2.81l-1,1.05,4.5-1.19-1.9-1.44.53,25.68.12,5.84c0,.5,0,1,0,1.51s.21-.3,0,0a9,9,0,0,0-.58,1.52c-.34.9-.69,1.79-1,2.68q-1.42,3.73-2.86,7.47-2.3,6-4.61,12.06a1.49,1.49,0,0,0,1.05,1.84l8.45,1.36a1.58,1.58,0,0,0,1.85-1.05q2.8-7.74,5.63-15.48l2.68-7.35a23.54,23.54,0,0,0,.72-5.23q.52-4.59,1-9.18l-1.9,1.44,9.37,3.24-1.1-1.45q.4,9.8.8,19.59a1.52,1.52,0,0,0,1.5,1.5l8.44,0a1.51,1.51,0,0,0,1.5-1.5l-.66-16.2c-.1-2.54-.18-5.09-.31-7.63a2.05,2.05,0,0,0-.94-1.87c-1.06-.69-2.17-1.31-3.24-1.95l-7.79-4.68.74,1.29q-.28-6.93-.58-13.85l-2.56,1.06,13.45,12.15a1.53,1.53,0,0,0,2.36-.3c1.21-2,2.42-3.93,3.62-5.9a1.51,1.51,0,0,0-.23-1.82L148.47,363l-5.86-5.72a9.7,9.7,0,0,0-1.38-1.34c-.3-.18.1.38.07.09a4.08,4.08,0,0,0-.56-1.15l-3.62-7.31a1.49,1.49,0,0,0-1.3-.75H124.14a1.53,1.53,0,0,0-1.5,1.5c0-.12.14-.38,0-.27s.19-.34.06-.14a6.36,6.36,0,0,0-.3.58c-.3.57-.63,1.12-1,1.67-.94,1.61-1.91,3.2-2.88,4.79-2,3.35-4.14,6.68-6.23,10-.39.62-.87,1.24-1.2,1.9a9.22,9.22,0,0,0-.52,2.28q-1.1,5.58-2.18,11.16-.84,4.35-1.7,8.72a1.53,1.53,0,0,0,1,1.84l6.9,1.85a1.5,1.5,0,0,0,.8-2.89" transform="translate(-49.02 -41.78)"/><path class="cls-4" d="M140.07,334.42A10.1,10.1,0,1,1,130,324.78a9.88,9.88,0,0,1,10.09,9.64" transform="translate(-49.02 -41.78)"/><path class="cls-4" d="M138.57,334.42a8.27,8.27,0,0,1-5.7,7.67,9,9,0,0,1-9.51-2.48,7.88,7.88,0,0,1-.7-9.45,8.81,8.81,0,0,1,8.89-3.75,8.37,8.37,0,0,1,7,8c0,1.93,3,1.93,3,0a11.37,11.37,0,0,0-7.64-10.48,11.94,11.94,0,0,0-12.86,3.36,10.93,10.93,0,0,0-1,12.89,11.9,11.9,0,0,0,12.27,5.13,11.37,11.37,0,0,0,9.23-10.9c0-1.93-3-1.93-3,0" transform="translate(-49.02 -41.78)"/><path class="cls-4" d="M159.49,379.61c2.6-3.45-1.31-7.17-1.31-7.17l-5.94,7.91s4.66,2.72,7.25-.74" transform="translate(-49.02 -41.78)"/><path class="cls-4" d="M110.5,396c4.22.9,6-4.21,6-4.21l-9.67-2.06s-.51,5.37,3.71,6.27" transform="translate(-49.02 -41.78)"/><path class="cls-4" d="M148.59,418.14c5,0,5.7-6.17,5.7-6.17H142.9s.72,6.17,5.69,6.17" transform="translate(-49.02 -41.78)"/><path class="cls-4" d="M118.93,432c4.92.73,6.54-5.27,6.54-5.27L114.21,425s-.19,6.21,4.72,6.94" transform="translate(-49.02 -41.78)"/></g></svg>